<svg id="Layer_1" data-name="Layer 1" xmlns="http://www.w3.org/2000/svg" viewBox="0 0 427.62 196.33"><defs><style>.cls-1{fill:#fff;}</style></defs><title>lowes_logo</title><path class="cls-1" d="M490.94,333.87v-19.3H422.08l-110-47.13-.41-.18-.42.18-110,47.13H132.32v19.3H97.81V463.58H525.43V333.87ZM196,437.54H146.18V349.06h19.55v71.47H196Zm64.24-9.3a9.29,9.29,0,0,1-9.29,9.3H213.16a9.3,9.3,0,0,1-9.3-9.3V374a9.3,9.3,0,0,1,9.3-9.3h37.76a9.29,9.29,0,0,1,9.29,9.3Zm91.09,0a9.3,9.3,0,0,1-9.3,9.29H318.85c-3.9,0-7.53-2.69-7.53-6.59,0,3.9-3.63,6.59-7.53,6.59H280.64a9.29,9.29,0,0,1-9.29-9.29V364.72h19.58v55.81h11.79V364.72h17.19v55.81h11.81V364.72H351.3ZM409,381.83H382.11V393H409V409.4H382.11v11.11H409v17H362.48V364.72H409Zm4.33-32.77H429.7l-2.82,21-13.57,0Zm58,87.23c-3.43,2.79-8.75,4.21-15.8,4.21h0c-12.9,0-27.44-4.82-27.58-4.87l-.25-.08V418.12l.48.18c.14.06,15.17,5.65,22.58,6.68l.19,0a13.82,13.82,0,0,0,1.58.1c3.85,0,6.9-1.79,7.59-4.46s-1-5.46-4.09-7.35l0,0a86.8,86.8,0,0,0-8.64-4.3c-7-3.16-14.19-6.41-18.69-14.23-3.5-6.9-3-16.15,1.07-22,4.9-7.12,12.42-10.73,22.36-10.73,1.18,0,2.4.07,3.64.17,10.79,1.55,21.47,8.28,21.58,8.34l.16.11v15.9l-.49-.21c-.05,0-5-2.12-10.65-4.46-2.69-1.1-7.86-3-12.41-3-2.84,0-5,.73-6.41,2.17a4.9,4.9,0,0,0-1.61,4.22c.74,4.27,7.47,6.9,9.68,7.77l.39.16c11.17,4.46,18.11,9.65,21.2,15.86l.12.24c.08.15.16.31.23.46l.13.25h0a19.76,19.76,0,0,1,2,9.07A24.51,24.51,0,0,1,471.32,436.29ZM487,376.12a5.95,5.95,0,1,1,6-6A6,6,0,0,1,487,376.12Z" transform="translate(-97.81 -267.26)"/><path class="cls-1" d="M487,365.22a5,5,0,1,0,4.8,4.93A4.8,4.8,0,0,0,487,365.22Zm1.74,8.38-1.8-3h-1.2v3h-1v-6.86h2.61c1.61,0,2.42.6,2.42,1.95a1.77,1.77,0,0,1-1.76,1.89l1.94,3Z" transform="translate(-97.81 -267.26)"/><rect class="cls-1" x="125.63" y="114.57" width="17.19" height="38.61"/><path class="cls-1" d="M488.65,368.62c0-.84-.77-1-1.5-1h-1.41v2.12H487C487.86,369.75,488.65,369.68,488.65,368.62Z" transform="translate(-97.81 -267.26)"/></svg>